<svg id="SvgjsSvg1017" xmlns="http://www.w3.org/2000/svg" version="1.1" xmlns:xlink="http://www.w3.org/1999/xlink" xmlns:svgjs="http://svgjs.com/svgjs" width="146" height="90"><defs id="SvgjsDefs1018"></defs><path style="fill:#FFF;" id="SvgjsPath1019" d="M82.38 150L85.82 138.32L77.02 106.69L88.94 106.69L91.63 122.52L94.25 106.69L105.28999999999999 106.69L93.19 150ZM70.39 99.44C68.53 102.53999999999999 65.91 103.67 62.8 103.67L61.08 103.67C55.67 103.67 52.8 100.81 52.8 93.9L52.8 60.00000000000001L63.879999999999995 60.00000000000001L63.879999999999995 94L67.57 94L67.57 60L78.69999999999999 60L78.69999999999999 103.31L72.07999999999998 103.31ZM24.76 140.45L24.76 130.6L35.84 130.6L35.84 140.39C35.84 147.07999999999998 32.95 150 26.320000000000004 150L19.510000000000005 150C12.890000000000004 150 10.000000000000005 147.08 10.000000000000005 140.39L10.000000000000005 116.29999999999998C10.000000000000005 109.60999999999999 12.890000000000006 106.68999999999998 19.510000000000005 106.68999999999998L26.200000000000006 106.68999999999998C32.830000000000005 106.68999999999998 35.720000000000006 109.60999999999999 35.720000000000006 116.29999999999998L35.720000000000006 125.17999999999998L24.700000000000006 125.17999999999998L24.700000000000006 116.23999999999998L21.080000000000005 116.23999999999998L21.080000000000005 140.45ZM114.55 81.28L114.55 103.31L105.13 103.31L105.13 60L114.88 60L120.75999999999999 80.36L120.75999999999999 60L130.17999999999998 60L130.17999999999998 103.31L120.93999999999998 103.31ZM53.07 106.69L75.3 106.69L75.3 116.17999999999999L69.72 116.17999999999999L69.72 150L58.65 150L58.65 116.18L53.07 116.18ZM102.08 103.31L82.3 103.31L82.3 60L101.96 60L101.96 69.61L93.36999999999999 69.61L93.36999999999999 76.85L101.53999999999999 76.85L101.53999999999999 86.46L93.36999999999999 86.46L93.36999999999999 93.69999999999999L102.07999999999998 93.69999999999999ZM21.08 103.31L9.999999999999998 103.31L9.999999999999998 60L29.509999999999998 60L29.509999999999998 69.61L21.08 69.61L21.08 78.13L29.089999999999996 78.13L29.089999999999996 87.74L21.08 87.74ZM50.23 103.31L32.589999999999996 103.31L32.589999999999996 60L43.669999999999995 60L43.669999999999995 93.75999999999999L50.23 93.75999999999999ZM39.1 106.69L50.230000000000004 106.69L50.230000000000004 150L39.1 150ZM133.02 60L133.02 69.61L138.60000000000002 69.61L138.60000000000002 103.31L149.67000000000002 103.31L149.67000000000002 69.61L155.25000000000003 69.61L155.25000000000003 60Z " fill-opacity="1" transform="matrix(1,0,0,1,-10,-60)"></path></svg>